<svg width="1920" height="320" viewBox="0 0 1920 320" fill="none" xmlns="http://www.w3.org/2000/svg">
<path fill-rule="evenodd" clip-rule="evenodd" d="M0 180L14.4 192C27.2 204 56 228 83.2 252C112 276 139.2 300 166.4 282C195.2 264 222.4 204 251.2 156C278.4 108 305.6 72 334.4 102C361.6 132 388.8 228 417.6 270C444.8 312 473.6 300 500.8 264C528 228 556.8 168 584 150C612.8 132 640 156 667.2 174C696 192 723.2 204 752 216C779.2 228 806.4 240 835.2 234C862.4 228 891.2 204 918.4 186C945.6 168 974.4 156 1001.6 156C1028.8 156 1057.6 168 1084.8 198C1113.6 228 1140.8 276 1168 288C1196.8 300 1224 276 1252.8 258C1280 240 1307.2 228 1336 186C1363.2 144 1392 72 1419.2 84C1446.4 96 1475.2 192 1502.4 210C1531.2 228 1558.4 168 1585.6 180C1614.4 192 1641.6 276 1668.8 306C1697.6 336 1724.8 312 1753.6 288C1780.8 264 1808 240 1836.8 222C1864 204 1892.8 192 1905.6 186L1920 180V0H1905.6C1892.8 0 1864 0 1836.8 0C1808 0 1780.8 0 1753.6 0C1724.8 0 1697.6 0 1668.8 0C1641.6 0 1614.4 0 1585.6 0C1558.4 0 1531.2 0 1502.4 0C1475.2 0 1446.4 0 1419.2 0C1392 0 1363.2 0 1336 0C1307.2 0 1280 0 1252.8 0C1224 0 1196.8 0 1168 0C1140.8 0 1113.6 0 1084.8 0C1057.6 0 1028.8 0 1001.6 0C974.4 0 945.6 0 918.4 0C891.2 0 862.4 0 835.2 0C806.4 0 779.2 0 752 0C723.2 0 696 0 667.2 0C640 0 612.8 0 584 0C556.8 0 528 0 500.8 0C473.6 0 444.8 0 417.6 0C388.8 0 361.6 0 334.4 0C305.6 0 278.4 0 251.2 0C222.4 0 195.2 0 166.4 0C139.2 0 112 0 83.2 0C56 0 27.2 0 14.4 0H0V180Z" fill="#0099FF"/>
</svg>
